# xmcd
#
# Track frame offsets:
#	150
#	17063
#	35029
#	53988
#	68348
#	86976
#	103034
#	119821
#	137943
#	152600
#	170812
#	186348
#	203909
#	220561
#	242118
#	259541
#	277564
#
# Disc length: 3939 seconds
#
# Revision: 1
# Processed by: cddbd v1.5.2PL0 Copyright (c) Steve Scherf et al.
# Submitted via: audiograbber 1.83.01
#
DISCID=f70f6111
DTITLE=Chartbuster 2009 Country Hits d1 - Chartbuster ESP503-1R 2009 Country
DYEAR=2009
DGENRE=Karaoke
TTITLE0=Montgomery Gentry - One In Every Crowd
TTITLE1=Lady Antebellum - I Run To You
TTITLE2=John Rich - Shuttin' Detroit Down
TTITLE3=Joey and Rory - Cheater, Cheater
TTITLE4=Rascall Flatts - It's Not Supposed To Go Like That
TTITLE5=Kenny Chesney - Out Last Night
TTITLE6=Whitney Duncan - Bed You Made, The
TTITLE7=Jimmy Wayne - I Will
TTITLE8=Trace Adkins - Marry For Money
TTITLE9=Kellie Pickler - Best Days Of Your Life
TTITLE10=George Strait - River Of Love
TTITLE11=Brooks and Dunn - Cowgirls Don't Cry
TTITLE12=Miranda Lambert - More Like Her
TTITLE13=Little Big Town - Good Lord Willing
TTITLE14=Darius Rucker - It Won't Be Like This For Long
TTITLE15=Taylor Swift - You Belong With Me
TTITLE16=Eli Young Band - Always The Love Song
EXTD=
EXTT0=
EXTT1=
EXTT2=
EXTT3=
EXTT4=
EXTT5=
EXTT6=
EXTT7=
EXTT8=
EXTT9=
EXTT10=
EXTT11=
EXTT12=
EXTT13=
EXTT14=
EXTT15=
EXTT16=
PLAYORDER=
